<svg width="24" height="25" viewBox="0 0 24 25" fill="none" xmlns="http://www.w3.org/2000/svg">
<g id="material-symbols:menu-rounded">
<path id="Vector" d="M4 18.5C3.71667 18.5 3.47933 18.404 3.288 18.212C3.09667 18.02 3.00067 17.7827 3 17.5C3 17.2167 3.096 16.9793 3.288 16.788C3.48 16.5967 3.71733 16.5007 4 16.5H20C20.2833 16.5 20.521 16.596 20.713 16.788C20.905 16.98 21.0007 17.2173 21 17.5C21 17.7833 20.904 18.021 20.712 18.213C20.52 18.405 20.2827 18.5007 20 18.5H4ZM4 13.5C3.71667 13.5 3.47933 13.404 3.288 13.212C3.09667 13.02 3.00067 12.7827 3 12.5C3 12.2167 3.096 11.9793 3.288 11.788C3.48 11.5967 3.71733 11.5007 4 11.5H20C20.2833 11.5 20.521 11.596 20.713 11.788C20.905 11.98 21.0007 12.2173 21 12.5C21 12.7833 20.904 13.021 20.712 13.213C20.52 13.405 20.2827 13.5007 20 13.5H4ZM4 8.5C3.71667 8.5 3.47933 8.404 3.288 8.212C3.09667 8.02 3.00067 7.78267 3 7.5C3 7.21667 3.096 6.97933 3.288 6.788C3.48 6.59667 3.71733 6.50067 4 6.5H20C20.2833 6.5 20.521 6.596 20.713 6.788C20.905 6.98 21.0007 7.21733 21 7.5C21 7.78333 20.904 8.021 20.712 8.213C20.52 8.405 20.2827 8.50067 20 8.5H4Z" fill="#007BFF"/>
</g>
</svg>
