<svg width="166" height="166" viewBox="0 0 166 166" fill="none" xmlns="http://www.w3.org/2000/svg">
<g id="material-symbols:check-circle">
<path id="Vector" d="M73.3173 114.815L122.08 66.0529L112.396 56.3695L73.3173 95.4487L53.6048 75.7362L43.9215 85.4195L73.3173 114.815ZM83.0006 152.165C73.4326 152.165 64.4409 150.349 56.0257 146.715C47.6104 143.081 40.2902 138.155 34.0652 131.934C27.8402 125.709 22.9133 118.389 19.2843 109.974C15.6554 101.558 13.8386 92.5667 13.834 82.9987C13.834 73.4306 15.6508 64.439 19.2843 56.0237C22.9179 47.6084 27.8448 40.2883 34.0652 34.0633C40.2902 27.8383 47.6104 22.9113 56.0257 19.2824C64.4409 15.6534 73.4326 13.8366 83.0006 13.832C92.5687 13.832 101.56 15.6488 109.976 19.2824C118.391 22.9159 125.711 27.8429 131.936 34.0633C138.161 40.2883 143.09 47.6084 146.724 56.0237C150.357 64.439 152.172 73.4306 152.167 82.9987C152.167 92.5667 150.351 101.558 146.717 109.974C143.083 118.389 138.156 125.709 131.936 131.934C125.711 138.159 118.391 143.088 109.976 146.722C101.56 150.355 92.5687 152.17 83.0006 152.165Z" fill="#1939B7"/>
</g>
</svg>
