<?xml version="1.0" encoding="UTF-8"?>
<svg xmlns="http://www.w3.org/2000/svg" style="display: none;">
    <symbol id="chat" viewBox="0 0 640 512">
        <path opacity="1" fill="#1E3050" d="M88.2 309.1c9.8-18.3 6.8-40.8-7.5-55.8C59.4 230.9 48 204 48 176c0-63.5 63.8-128 160-128s160 64.5 160 128s-63.8 128-160 128c-13.1 0-25.8-1.3-37.8-3.6c-10.4-2-21.2-.6-30.7 4.2c-4.1 2.1-8.3 4.1-12.6 6c-16 7.2-32.9 13.5-49.9 18c2.8-4.6 5.4-9.1 7.9-13.6c1.1-1.9 2.2-3.9 3.2-5.9zM0 176c0 41.8 17.2 80.1 45.9 110.3c-.9 1.7-1.9 3.5-2.8 5.1c-10.3 18.4-22.3 36.5-36.6 52.1c-6.6 7-8.3 17.2-4.6 25.9C5.8 378.3 14.4 384 24 384c43 0 86.5-13.3 122.7-29.7c4.8-2.2 9.6-4.5 14.2-6.8c15.1 3 30.9 4.5 47.1 4.5c114.9 0 208-78.8 208-176S322.9 0 208 0S0 78.8 0 176zM432 480c16.2 0 31.9-1.6 47.1-4.5c4.6 2.3 9.4 4.6 14.2 6.8C529.5 498.7 573 512 616 512c9.6 0 18.2-5.7 22-14.5c3.8-8.8 2-19-4.6-25.9c-14.2-15.6-26.2-33.7-36.6-52.1c-.9-1.7-1.9-3.4-2.8-5.1C622.8 384.1 640 345.8 640 304c0-94.4-87.9-171.5-198.2-175.8c4.1 15.2 6.2 31.2 6.2 47.8l0 .6c87.2 6.7 144 67.5 144 127.4c0 28-11.4 54.9-32.7 77.2c-14.3 15-17.3 37.6-7.5 55.8c1.1 2 2.2 4 3.2 5.9c2.5 4.5 5.2 9 7.9 13.6c-17-4.5-33.9-10.7-49.9-18c-4.3-1.9-8.5-3.9-12.6-6c-9.5-4.8-20.3-6.2-30.7-4.2c-12.1 2.4-24.7 3.6-37.8 3.6c-61.7 0-110-26.5-136.8-62.3c-16 5.4-32.8 9.4-50 11.8C279 439.8 350 480 432 480z"/>
    </symbol>
    <symbol id="booking" viewBox="0 0 24 25">
        <path d="M6 22.5555C5.45 22.5555 4.97933 22.3599 4.588 21.9685C4.19667 21.5772 4.00067 21.1062 4 20.5555V4.55554C4 4.00554 4.196 3.53488 4.588 3.14354C4.98 2.75221 5.45067 2.55621 6 2.55554H18C18.55 2.55554 19.021 2.75154 19.413 3.14354C19.805 3.53554 20.0007 4.00621 20 4.55554V20.5555C20 21.1055 19.8043 21.5765 19.413 21.9685C19.0217 22.3605 18.5507 22.5562 18 22.5555H6ZM11 11.5555L13.5 10.0555L16 11.5555V4.55554H11V11.5555Z" fill="white"/>
    </symbol>
    <symbol id="standing" viewBox="0 0 25 25">
        <path d="M12.5 22.5555C11.1167 22.5555 9.81667 22.2929 8.6 21.7675C7.38333 21.2422 6.325 20.5299 5.425 19.6305C4.525 18.7305 3.81267 17.6722 3.288 16.4555C2.76333 15.2389 2.50067 13.9389 2.5 12.5555C2.5 11.1722 2.76267 9.87221 3.288 8.65554C3.81333 7.43888 4.52567 6.38054 5.425 5.48054C6.325 4.58054 7.38333 3.86821 8.6 3.34354C9.81667 2.81888 11.1167 2.55621 12.5 2.55554C13.8833 2.55554 15.1833 2.81821 16.4 3.34354C17.6167 3.86888 18.675 4.58121 19.575 5.48054C20.475 6.38054 21.1877 7.43888 21.713 8.65554C22.2383 9.87221 22.5007 11.1722 22.5 12.5555C22.5 13.9389 22.2373 15.2389 21.712 16.4555C21.1867 17.6722 20.4743 18.7305 19.575 19.6305C18.675 20.5305 17.6167 21.2432 16.4 21.7685C15.1833 22.2939 13.8833 22.5562 12.5 22.5555ZM10 14.0555C10.9667 14.0555 11.7917 13.7139 12.475 13.0305C13.1583 12.3472 13.5 11.5222 13.5 10.5555C13.5 9.58888 13.1583 8.76388 12.475 8.08054C11.7917 7.39721 10.9667 7.05554 10 7.05554C9.03333 7.05554 8.20833 7.39721 7.525 8.08054C6.84167 8.76388 6.5 9.58888 6.5 10.5555C6.5 11.5222 6.84167 12.3472 7.525 13.0305C8.20833 13.7139 9.03333 14.0555 10 14.0555ZM17 15.0555C17.7 15.0555 18.2917 14.8139 18.775 14.3305C19.2583 13.8472 19.5 13.2555 19.5 12.5555C19.5 11.8555 19.2583 11.2639 18.775 10.7805C18.2917 10.2972 17.7 10.0555 17 10.0555C16.3 10.0555 15.7083 10.2972 15.225 10.7805C14.7417 11.2639 14.5 11.8555 14.5 12.5555C14.5 13.2555 14.7417 13.8472 15.225 14.3305C15.7083 14.8139 16.3 15.0555 17 15.0555ZM12.5 20.5555C13.9167 20.5555 15.2083 20.2222 16.375 19.5555C17.5417 18.8889 18.4833 18.0055 19.2 16.9055C18.85 16.8055 18.4917 16.7222 18.125 16.6555C17.7583 16.5889 17.3833 16.5555 17 16.5555C16.1167 16.5555 15.05 16.8139 13.8 17.3305C12.55 17.8472 11.55 18.8639 10.8 20.3805C11.0833 20.4472 11.3667 20.4932 11.65 20.5185C11.9333 20.5439 12.2167 20.5562 12.5 20.5555ZM9.325 19.9055C9.90833 18.7055 10.571 17.8139 11.313 17.2305C12.055 16.6472 12.6173 16.2555 13 16.0555C12.5167 15.9055 12.029 15.7849 11.537 15.6935C11.045 15.6022 10.5327 15.5562 10 15.5555C9.25 15.5555 8.50833 15.6472 7.775 15.8305C7.04167 16.0139 6.33333 16.2722 5.65 16.6055C6.08333 17.3222 6.61267 17.9682 7.238 18.5435C7.86333 19.1189 8.559 19.5729 9.325 19.9055Z" fill="white"/>
    </symbol>
    <symbol id="comfort" viewBox="0 0 24 25">
        <path d="M7 9.05554L9 7.05554L7 5.05554L5 7.05554L7 9.05554ZM12 8.05554C10.7 8.05554 9.579 8.48888 8.637 9.35554C7.695 10.2222 7.15767 11.2889 7.025 12.5555H4V3.55554H20V12.5555H16.975C16.8417 11.2889 16.3043 10.2222 15.363 9.35554C14.4217 8.48888 13.3007 8.05554 12 8.05554ZM4 14.5555C3.45 14.5555 2.97933 14.3599 2.588 13.9685C2.19667 13.5772 2.00067 13.1062 2 12.5555V3.55554C2 3.00554 2.196 2.53488 2.588 2.14354C2.98 1.75221 3.45067 1.55621 4 1.55554H20C20.55 1.55554 21.021 1.75154 21.413 2.14354C21.805 2.53554 22.0007 3.00621 22 3.55554V12.5555C22 13.1055 21.8043 13.5765 21.413 13.9685C21.0217 14.3605 20.5507 14.5562 20 14.5555H16.775C16.875 14.2222 16.9417 13.8889 16.975 13.5555C17.0083 13.2222 17.0083 12.8889 16.975 12.5555H20V3.55554H4V12.5555H7.025C6.99167 12.8889 6.99167 13.2222 7.025 13.5555C7.05833 13.8889 7.125 14.2222 7.225 14.5555H4ZM16.5 7.55554C16.9167 7.55554 17.271 7.40988 17.563 7.11854C17.855 6.82721 18.0007 6.47288 18 6.05554C18 5.63888 17.8543 5.28488 17.563 4.99354C17.2717 4.70221 16.9173 4.55621 16.5 4.55554C16.0833 4.55554 15.7293 4.70154 15.438 4.99354C15.1467 5.28554 15.0007 5.63954 15 6.05554C15 6.47221 15.146 6.82654 15.438 7.11854C15.73 7.41054 16.084 7.55621 16.5 7.55554ZM5 23.5555V21.4555C5 20.8722 5.16267 20.3305 5.488 19.8305C5.81333 19.3305 6.24233 18.9555 6.775 18.7055C7.59167 18.3222 8.44167 18.0349 9.325 17.8435C10.2083 17.6522 11.1 17.5562 12 17.5555C12.9 17.5555 13.7917 17.6515 14.675 17.8435C15.5583 18.0355 16.4083 18.3229 17.225 18.7055C17.7583 18.9555 18.1877 19.3305 18.513 19.8305C18.8383 20.3305 19.0007 20.8722 19 21.4555V23.5555H5ZM12 16.5555C11.0333 16.5555 10.2083 16.2139 9.525 15.5305C8.84167 14.8472 8.5 14.0222 8.5 13.0555C8.5 12.0889 8.84167 11.2639 9.525 10.5805C10.2083 9.89721 11.0333 9.55554 12 9.55554C12.9667 9.55554 13.7917 9.89721 14.475 10.5805C15.1583 11.2639 15.5 12.0889 15.5 13.0555C15.5 14.0222 15.1583 14.8472 14.475 15.5305C13.7917 16.2139 12.9667 16.5555 12 16.5555Z" fill="white"/>
    </symbol>
    <symbol id="private" viewBox="0 0 25 25">
        <path d="M12.5 19.5555C10.7333 19.5555 9.196 18.9845 7.888 17.8425C6.58 16.7005 5.809 15.2715 5.575 13.5555H2.5V11.5555H5.575C5.80833 9.83888 6.57933 8.40954 7.888 7.26754C9.19667 6.12554 10.734 5.55488 12.5 5.55554C14.2667 5.55554 15.8043 6.12654 17.113 7.26854C18.4217 8.41054 19.1923 9.83954 19.425 11.5555H22.5V13.5555H19.425C19.1917 15.2722 18.421 16.7015 17.113 17.8435C15.805 18.9855 14.2673 19.5562 12.5 19.5555ZM10.5 16.0555H14.5C14.7833 16.0555 15.021 15.9595 15.213 15.7675C15.405 15.5755 15.5007 15.3382 15.5 15.0555V12.0555C15.5 11.7722 15.404 11.5349 15.212 11.3435C15.02 11.1522 14.7827 11.0562 14.5 11.0555V10.1555C14.5 9.57221 14.3083 9.07654 13.925 8.66854C13.5417 8.26054 13.0667 8.05621 12.5 8.05554C11.95 8.05554 11.4793 8.25154 11.088 8.64354C10.6967 9.03554 10.5007 9.50621 10.5 10.0555V11.0555C10.2167 11.0555 9.97933 11.1515 9.788 11.3435C9.59667 11.5355 9.50067 11.7729 9.5 12.0555V15.0555C9.5 15.3389 9.596 15.5765 9.788 15.7685C9.98 15.9605 10.2173 16.0562 10.5 16.0555ZM12.5 14.3055C12.2833 14.3055 12.1043 14.2345 11.963 14.0925C11.8217 13.9505 11.7507 13.7715 11.75 13.5555C11.75 13.3389 11.821 13.1599 11.963 13.0185C12.105 12.8772 12.284 12.8062 12.5 12.8055C12.7167 12.8055 12.896 12.8765 13.038 13.0185C13.18 13.1605 13.2507 13.3395 13.25 13.5555C13.25 13.7722 13.179 13.9515 13.037 14.0935C12.895 14.2355 12.716 14.3062 12.5 14.3055ZM11.5 11.0555V10.0555C11.5 9.77221 11.596 9.53488 11.788 9.34354C11.98 9.15221 12.2173 9.05621 12.5 9.05554C12.7833 9.05554 13.021 9.15154 13.213 9.34354C13.405 9.53554 13.5007 9.77288 13.5 10.0555V11.0555H11.5Z" fill="white"/>
    </symbol>
    <symbol id="phone" viewBox="0 0 512 512">
        <path d="M164.9 24.6c-7.7-18.6-28-28.5-47.4-23.2l-88 24C12.1 30.2 0 46 0 64C0 311.4 200.6 512 448 512c18 0 33.8-12.1 38.6-29.5l24-88c5.3-19.4-4.6-39.7-23.2-47.4l-96-40c-16.3-6.8-35.2-2.1-46.3 11.6L304.7 368C234.3 334.7 177.3 277.7 144 207.3L193.3 167c13.7-11.2 18.4-30 11.6-46.3l-40-96z"/>
    </symbol>
     <symbol id="chat" viewBox="0 0 640 512">
        <path opacity="1" fill="#1E3050" d="M88.2 309.1c9.8-18.3 6.8-40.8-7.5-55.8C59.4 230.9 48 204 48 176c0-63.5 63.8-128 160-128s160 64.5 160 128s-63.8 128-160 128c-13.1 0-25.8-1.3-37.8-3.6c-10.4-2-21.2-.6-30.7 4.2c-4.1 2.1-8.3 4.1-12.6 6c-16 7.2-32.9 13.5-49.9 18c2.8-4.6 5.4-9.1 7.9-13.6c1.1-1.9 2.2-3.9 3.2-5.9zM0 176c0 41.8 17.2 80.1 45.9 110.3c-.9 1.7-1.9 3.5-2.8 5.1c-10.3 18.4-22.3 36.5-36.6 52.1c-6.6 7-8.3 17.2-4.6 25.9C5.8 378.3 14.4 384 24 384c43 0 86.5-13.3 122.7-29.7c4.8-2.2 9.6-4.5 14.2-6.8c15.1 3 30.9 4.5 47.1 4.5c114.9 0 208-78.8 208-176S322.9 0 208 0S0 78.8 0 176zM432 480c16.2 0 31.9-1.6 47.1-4.5c4.6 2.3 9.4 4.6 14.2 6.8C529.5 498.7 573 512 616 512c9.6 0 18.2-5.7 22-14.5c3.8-8.8 2-19-4.6-25.9c-14.2-15.6-26.2-33.7-36.6-52.1c-.9-1.7-1.9-3.4-2.8-5.1C622.8 384.1 640 345.8 640 304c0-94.4-87.9-171.5-198.2-175.8c4.1 15.2 6.2 31.2 6.2 47.8l0 .6c87.2 6.7 144 67.5 144 127.4c0 28-11.4 54.9-32.7 77.2c-14.3 15-17.3 37.6-7.5 55.8c1.1 2 2.2 4 3.2 5.9c2.5 4.5 5.2 9 7.9 13.6c-17-4.5-33.9-10.7-49.9-18c-4.3-1.9-8.5-3.9-12.6-6c-9.5-4.8-20.3-6.2-30.7-4.2c-12.1 2.4-24.7 3.6-37.8 3.6c-61.7 0-110-26.5-136.8-62.3c-16 5.4-32.8 9.4-50 11.8C279 439.8 350 480 432 480z"/>
    </symbol>
    <symbol id="social-whatsapp" viewBox="0 0 448 512">
        <path d="M380.9 97.1C339 55.1 283.2 32 223.9 32c-122.4 0-222 99.6-222 222 0 39.1 10.2 77.3 29.6 111L0 480l117.7-30.9c32.4 17.7 68.9 27 106.1 27h.1c122.3 0 224.1-99.6 224.1-222 0-59.3-25.2-115-67.1-157zm-157 341.6c-33.2 0-65.7-8.9-94-25.7l-6.7-4-69.8 18.3L72 359.2l-4.4-7c-18.5-29.4-28.2-63.3-28.2-98.2 0-101.7 82.8-184.5 184.6-184.5 49.3 0 95.6 19.2 130.4 54.1 34.8 34.9 56.2 81.2 56.1 130.5 0 101.8-84.9 184.6-186.6 184.6zm101.2-138.2c-5.5-2.8-32.8-16.2-37.9-18-5.1-1.9-8.8-2.8-12.5 2.8-3.7 5.6-14.3 18-17.6 21.8-3.2 3.7-6.5 4.2-12 1.4-32.6-16.3-54-29.1-75.5-66-5.7-9.8 5.7-9.1 16.3-30.3 1.8-3.7 .9-6.9-.5-9.7-1.4-2.8-12.5-30.1-17.1-41.2-4.5-10.8-9.1-9.3-12.5-9.5-3.2-.2-6.9-.2-10.6-.2-3.7 0-9.7 1.4-14.8 6.9-5.1 5.6-19.4 19-19.4 46.3 0 27.3 19.9 53.7 22.6 57.4 2.8 3.7 39.1 59.7 94.8 83.8 35.2 15.2 49 16.5 66.6 13.9 10.7-1.6 32.8-13.4 37.4-26.4 4.6-13 4.6-24.1 3.2-26.4-1.3-2.5-5-3.9-10.5-6.6z"/>
    </symbol>
</svg>