<svg width="24" height="24" viewBox="0 0 24 24" fill="none" xmlns="http://www.w3.org/2000/svg">
<g id="eos-icons:trusted-organization">
<path id="Vector" d="M19 9.00063C19.0004 7.79553 18.6898 6.61073 18.098 5.56091C17.5063 4.51109 16.6536 3.63181 15.6224 3.00819C14.5912 2.38458 13.4165 2.03774 12.2119 2.00126C11.0074 1.96477 9.81381 2.23988 8.74676 2.79995C7.67972 3.36002 6.77533 4.18607 6.12116 5.19816C5.46698 6.21024 5.08517 7.37407 5.01268 8.57699C4.94019 9.7799 5.17948 10.9812 5.70739 12.0645C6.23529 13.1478 7.03393 14.0765 8.026 14.7606L5 20.0006L7.256 20.0936L8.464 22.0006L11.93 15.9966C11.954 15.9966 11.976 16.0006 12 16.0006C12.024 16.0006 12.046 15.9976 12.07 15.9966L15.536 22.0006L16.768 20.1346L19 20.0006L15.974 14.7606C16.9076 14.1178 17.6709 13.2576 18.198 12.2542C18.7252 11.2507 19.0004 10.1341 19 9.00063ZM7 9.00063C7 8.01172 7.29325 7.04502 7.84265 6.22278C8.39206 5.40053 9.17295 4.75967 10.0866 4.38123C11.0002 4.00279 12.0055 3.90377 12.9755 4.0967C13.9454 4.28963 14.8363 4.76583 15.5355 5.46509C16.2348 6.16436 16.711 7.05527 16.9039 8.02518C17.0969 8.99508 16.9978 10.0004 16.6194 10.914C16.241 11.8277 15.6001 12.6086 14.7779 13.158C13.9556 13.7074 12.9889 14.0006 12 14.0006C10.6739 14.0006 9.40215 13.4738 8.46447 12.5362C7.52679 11.5985 7 10.3267 7 9.00063Z" fill="#F9465B"/>
<path id="Vector_2" d="M12 12C13.6569 12 15 10.6569 15 9C15 7.34315 13.6569 6 12 6C10.3431 6 9 7.34315 9 9C9 10.6569 10.3431 12 12 12Z" fill="#F9465B"/>
</g>
</svg>
