<svg xmlns="http://www.w3.org/2000/svg" xmlns:xlink="http://www.w3.org/1999/xlink" width="500" zoomAndPan="magnify" viewBox="0 0 375 149.999998" height="200" preserveAspectRatio="xMidYMid meet" version="1.0"><defs><g/><clipPath id="e0e1328c21"><path d="M 285.339844 31.730469 L 327.945312 31.730469 L 327.945312 74.339844 L 285.339844 74.339844 Z M 285.339844 31.730469 " clip-rule="nonzero"/></clipPath><clipPath id="afbfe3d78d"><path d="M 306.644531 31.730469 C 294.878906 31.730469 285.339844 41.269531 285.339844 53.035156 C 285.339844 64.800781 294.878906 74.339844 306.644531 74.339844 C 318.410156 74.339844 327.945312 64.800781 327.945312 53.035156 C 327.945312 41.269531 318.410156 31.730469 306.644531 31.730469 Z M 306.644531 31.730469 " clip-rule="nonzero"/></clipPath><clipPath id="c84da3ee19"><path d="M 269.484375 25.089844 L 334.734375 25.089844 L 334.734375 118 L 269.484375 118 Z M 269.484375 25.089844 " clip-rule="nonzero"/></clipPath><clipPath id="a5ecab7e99"><path d="M 279 46 L 326 46 L 326 89 L 279 89 Z M 279 46 " clip-rule="nonzero"/></clipPath><clipPath id="ae5ec8f9f2"><path d="M 317.195312 35.296875 L 334.03125 76.21875 L 291.03125 93.910156 L 274.195312 52.988281 Z M 317.195312 35.296875 " clip-rule="nonzero"/></clipPath><clipPath id="d39e5e2664"><path d="M 317.195312 35.296875 L 334.03125 76.21875 L 291.03125 93.910156 L 274.195312 52.988281 Z M 317.195312 35.296875 " clip-rule="nonzero"/></clipPath></defs><rect x="-37.5" width="450" fill="#ffffff" y="-15" height="179.999997" fill-opacity="1"/><rect x="-37.5" width="450" fill="#ffffff" y="-15" height="179.999997" fill-opacity="1"/><g clip-path="url(#e0e1328c21)"><g clip-path="url(#afbfe3d78d)"><path fill="#38b6ff" d="M 285.339844 31.730469 L 327.945312 31.730469 L 327.945312 74.339844 L 285.339844 74.339844 Z M 285.339844 31.730469 " fill-opacity="1" fill-rule="nonzero"/></g></g><g clip-path="url(#c84da3ee19)"><path fill="#38b6ff" d="M 301.996094 25.089844 C 284.046875 25.089844 269.484375 39.652344 269.484375 57.601562 C 269.484375 81.988281 301.996094 117.984375 301.996094 117.984375 C 301.996094 117.984375 334.511719 81.988281 334.511719 57.601562 C 334.511719 39.652344 319.949219 25.089844 301.996094 25.089844 Z M 301.996094 69.214844 C 295.585938 69.214844 290.386719 64.011719 290.386719 57.601562 C 290.386719 51.191406 295.585938 45.992188 301.996094 45.992188 C 308.40625 45.992188 313.609375 51.191406 313.609375 57.601562 C 313.609375 64.011719 308.40625 69.214844 301.996094 69.214844 Z M 301.996094 69.214844 " fill-opacity="1" fill-rule="nonzero"/></g><g clip-path="url(#a5ecab7e99)"><g clip-path="url(#ae5ec8f9f2)"><g clip-path="url(#d39e5e2664)"><path fill="#ffffff" d="M 303.808594 88.953125 L 308.140625 87.171875 L 311.84375 65.382812 L 323.757812 60.480469 C 325.554688 59.742188 326.410156 57.691406 325.671875 55.894531 C 324.929688 54.097656 322.882812 53.242188 321.082031 53.980469 L 309.167969 58.882812 L 291.207031 46.007812 L 286.875 47.792969 L 299.421875 62.894531 L 287.503906 67.796875 L 282.472656 64.800781 L 279.222656 66.136719 L 284.507812 72.828125 L 285.460938 81.300781 L 288.710938 79.964844 L 290.179688 74.296875 L 302.09375 69.394531 Z M 303.808594 88.953125 " fill-opacity="1" fill-rule="nonzero"/></g></g></g><g fill="#007bff" fill-opacity="1"><g transform="translate(59.269319, 77.435161)"><g><path d="M 38.59375 -46.011719 L 4.027344 -46.011719 L 4.027344 -37.441406 L 17.023438 -37.441406 L 17.023438 0 L 25.59375 0 L 25.59375 -37.441406 L 38.59375 -37.441406 Z M 38.59375 -46.011719 "/></g></g></g><g fill="#007bff" fill-opacity="1"><g transform="translate(101.880092, 77.435161)"><g><path d="M 30.484375 -46.011719 L 30.484375 -15.933594 C 30.484375 -11.273438 26.746094 -7.535156 22.144531 -7.535156 L 20.992188 -7.535156 C 16.390625 -7.535156 12.652344 -11.273438 12.652344 -15.933594 L 12.652344 -46.011719 L 4.027344 -46.011719 L 4.027344 -15.933594 C 4.027344 -6.613281 11.675781 1.035156 20.992188 1.035156 L 22.144531 1.035156 C 31.460938 1.035156 39.054688 -6.613281 39.054688 -15.933594 L 39.054688 -46.011719 Z M 30.484375 -46.011719 "/></g></g></g><g fill="#007bff" fill-opacity="1"><g transform="translate(144.950906, 77.435161)"><g><path d="M 12.597656 -8.570312 L 12.597656 -46.011719 L 4.027344 -46.011719 L 4.027344 0 L 30.65625 0 L 30.65625 -8.570312 Z M 12.597656 -8.570312 "/></g></g></g><g fill="#007bff" fill-opacity="1"><g transform="translate(179.626076, 77.435161)"><g><path d="M 30.484375 -46.011719 L 30.484375 -15.933594 C 30.484375 -11.273438 26.746094 -7.535156 22.144531 -7.535156 L 20.992188 -7.535156 C 16.390625 -7.535156 12.652344 -11.273438 12.652344 -15.933594 L 12.652344 -46.011719 L 4.027344 -46.011719 L 4.027344 -15.933594 C 4.027344 -6.613281 11.675781 1.035156 20.992188 1.035156 L 22.144531 1.035156 C 31.460938 1.035156 39.054688 -6.613281 39.054688 -15.933594 L 39.054688 -46.011719 Z M 30.484375 -46.011719 "/></g></g></g><g fill="#007bff" fill-opacity="1"><g transform="translate(222.69689, 77.435161)"><g><path d="M 42.332031 -46.011719 L 32.898438 -46.011719 L 23.179688 -22.832031 L 13.515625 -46.011719 L 4.027344 -46.011719 L 4.027344 0 L 12.652344 0 L 12.652344 -25.421875 L 18.460938 -11.5625 L 27.894531 -11.5625 L 33.761719 -25.535156 L 33.761719 0 L 42.332031 0 Z M 42.332031 -46.011719 "/></g></g></g><g fill="#007bff" fill-opacity="1"><g transform="translate(269.048926, 77.435161)"><g/></g></g><g fill="#000000" fill-opacity="1"><g transform="translate(60.416953, 114.666735)"><g><path d="M 17.703125 0 L 20.550781 0 L 11.71875 -24.417969 L 8.832031 -24.417969 L 0 0 L 2.847656 0 L 4.84375 -5.699219 L 15.710938 -5.699219 Z M 5.699219 -8.179688 L 10.296875 -21.324219 L 14.855469 -8.179688 Z M 5.699219 -8.179688 "/></g></g></g><g fill="#000000" fill-opacity="1"><g transform="translate(80.967119, 114.666735)"><g><path d="M 3.175781 0 L 5.777344 0 L 5.777344 -24.417969 L 3.175781 -24.417969 Z M 3.175781 0 "/></g></g></g><g fill="#000000" fill-opacity="1"><g transform="translate(89.878976, 114.666735)"><g><path d="M 12.859375 -11.152344 C 16.074219 -11.597656 18.515625 -14.285156 18.515625 -17.582031 C 18.515625 -21.40625 15.464844 -24.417969 11.71875 -24.417969 L 2.972656 -24.417969 L 2.972656 0 L 5.574219 0 L 5.574219 -11.027344 L 10.175781 -11.027344 L 17.09375 0 L 20.0625 0 Z M 5.574219 -13.511719 L 5.574219 -21.8125 L 11.558594 -21.8125 C 14 -21.8125 15.914062 -20.105469 15.914062 -17.664062 C 15.914062 -15.179688 14.039062 -13.511719 11.558594 -13.511719 Z M 5.574219 -13.511719 "/></g></g></g><g fill="#000000" fill-opacity="1"><g transform="translate(110.307067, 114.666735)"><g><path d="M 11.71875 -24.417969 L 2.972656 -24.417969 L 2.972656 0 L 5.574219 0 L 5.574219 -10.867188 L 11.71875 -10.867188 C 15.503906 -10.867188 18.515625 -13.835938 18.515625 -17.621094 C 18.515625 -21.367188 15.503906 -24.417969 11.71875 -24.417969 Z M 11.476562 -13.347656 L 5.574219 -13.347656 L 5.574219 -21.894531 L 11.476562 -21.894531 C 13.917969 -21.894531 15.914062 -20.1875 15.914062 -17.582031 C 15.914062 -14.894531 13.917969 -13.347656 11.476562 -13.347656 Z M 11.476562 -13.347656 "/></g></g></g><g fill="#000000" fill-opacity="1"><g transform="translate(129.51435, 114.666735)"><g><path d="M 14.527344 0.324219 C 21.488281 0.324219 27.0625 -5.289062 27.0625 -12.210938 C 27.0625 -19.128906 21.488281 -24.742188 14.527344 -24.742188 C 7.609375 -24.742188 1.996094 -19.128906 1.996094 -12.210938 C 1.996094 -5.289062 7.609375 0.324219 14.527344 0.324219 Z M 14.527344 -2.277344 C 9.035156 -2.277344 4.597656 -6.675781 4.597656 -12.210938 C 4.597656 -17.742188 9.035156 -22.140625 14.527344 -22.140625 C 20.0625 -22.140625 24.457031 -17.742188 24.457031 -12.210938 C 24.457031 -6.675781 20.0625 -2.277344 14.527344 -2.277344 Z M 14.527344 -2.277344 "/></g></g></g><g fill="#000000" fill-opacity="1"><g transform="translate(158.610128, 114.666735)"><g><path d="M 12.859375 -11.152344 C 16.074219 -11.597656 18.515625 -14.285156 18.515625 -17.582031 C 18.515625 -21.40625 15.464844 -24.417969 11.71875 -24.417969 L 2.972656 -24.417969 L 2.972656 0 L 5.574219 0 L 5.574219 -11.027344 L 10.175781 -11.027344 L 17.09375 0 L 20.0625 0 Z M 5.574219 -13.511719 L 5.574219 -21.8125 L 11.558594 -21.8125 C 14 -21.8125 15.914062 -20.105469 15.914062 -17.664062 C 15.914062 -15.179688 14.039062 -13.511719 11.558594 -13.511719 Z M 5.574219 -13.511719 "/></g></g></g><g fill="#000000" fill-opacity="1"><g transform="translate(179.038219, 114.666735)"><g><path d="M 16.480469 -24.417969 L 0.367188 -24.417969 L 0.367188 -21.8125 L 7.121094 -21.8125 L 7.121094 0 L 9.726562 0 L 9.726562 -21.8125 L 16.480469 -21.8125 Z M 16.480469 -24.417969 "/></g></g></g><g fill="#000000" fill-opacity="1"><g transform="translate(195.885283, 114.666735)"><g/></g></g><g fill="#000000" fill-opacity="1"><g transform="translate(205.692388, 114.666735)"><g><path d="M 14.527344 0.324219 C 19.207031 0.324219 23.277344 -2.238281 25.433594 -6.023438 L 23.195312 -7.285156 C 21.527344 -4.273438 18.273438 -2.277344 14.527344 -2.277344 C 9.035156 -2.277344 4.597656 -6.675781 4.597656 -12.210938 C 4.597656 -17.742188 9.035156 -22.140625 14.527344 -22.140625 C 18.273438 -22.140625 21.527344 -20.144531 23.195312 -17.132812 L 25.433594 -18.394531 C 23.277344 -22.179688 19.207031 -24.742188 14.527344 -24.742188 C 7.609375 -24.742188 1.996094 -19.128906 1.996094 -12.210938 C 1.996094 -5.289062 7.609375 0.324219 14.527344 0.324219 Z M 14.527344 0.324219 "/></g></g></g><g fill="#000000" fill-opacity="1"><g transform="translate(232.468643, 114.666735)"><g><path d="M 17.703125 0 L 20.550781 0 L 11.71875 -24.417969 L 8.832031 -24.417969 L 0 0 L 2.847656 0 L 4.84375 -5.699219 L 15.710938 -5.699219 Z M 5.699219 -8.179688 L 10.296875 -21.324219 L 14.855469 -8.179688 Z M 5.699219 -8.179688 "/></g></g></g><g fill="#000000" fill-opacity="1"><g transform="translate(253.018809, 114.666735)"><g><path d="M 15.015625 -12.371094 C 17.175781 -13.347656 18.597656 -15.300781 18.597656 -17.90625 C 18.597656 -21.730469 15.585938 -24.417969 11.84375 -24.417969 L 2.972656 -24.417969 L 2.972656 0 L 12.699219 0 C 16.402344 0 19.371094 -2.644531 19.371094 -6.429688 C 19.371094 -9.402344 17.582031 -11.515625 15.015625 -12.371094 Z M 15.992188 -17.703125 C 15.992188 -15.300781 14 -13.46875 11.558594 -13.46875 L 5.535156 -13.46875 L 5.535156 -21.8125 L 11.558594 -21.8125 C 14 -21.8125 15.992188 -20.105469 15.992188 -17.703125 Z M 12.371094 -2.605469 L 5.535156 -2.605469 L 5.535156 -10.949219 L 12.371094 -10.949219 C 14.773438 -10.949219 16.765625 -9.117188 16.765625 -6.714844 C 16.765625 -4.3125 14.773438 -2.605469 12.371094 -2.605469 Z M 12.371094 -2.605469 "/></g></g></g></svg>