<svg xmlns="http://www.w3.org/2000/svg" xmlns:xlink="http://www.w3.org/1999/xlink" viewBox="0 0 546.71 177.32"><defs><style>.cls-1{fill:url(#Degradado_sin_nombre_4);}.cls-2{fill:#fff;}</style><linearGradient id="Degradado_sin_nombre_4" x1="88.67" y1="-20.39" x2="88.67" y2="194.1" gradientUnits="userSpaceOnUse"><stop offset="0" stop-color="#f39669"/><stop offset="1" stop-color="#e83b68"/></linearGradient></defs><g id="Capa_2" data-name="Capa 2"><g id="Capa_1-2" data-name="Capa 1"><path class="cls-1" d="M88.67,0a88.66,88.66,0,1,0,88.67,88.65A88.67,88.67,0,0,0,88.67,0ZM166,91c0,.39,0,.76-.05,1.15,0,.1,0,.17,0,.24,0,.34,0,.67,0,1s0,1-.09,1.41a5.33,5.33,0,0,1-.07.72c0,.39-.07.78-.09,1.18l-.21,1.87c-.16,1.34-.37,2.68-.62,4s-.42,2.29-.67,3.42c-.1.37-.19.79-.28,1.16s-.23,1-.37,1.43A79.56,79.56,0,0,1,140.88,146l-1,1c-.81.69-1.62,1.39-2.43,2.06l0,0c-.44.35-.88.67-1.31,1s-.79.56-1.18.83c-.21.14-.4.28-.6.4l-.93.58a.67.67,0,0,1-.14.09l-1.24.71a1.6,1.6,0,0,1-.35.17,8.06,8.06,0,0,1-1,.53l-.5.25c-.33.16-.65.33-1,.46-.65.28-1.28.54-1.92.79-.35.14-.67.25-1,.37s-1,.32-1.43.46a14.62,14.62,0,0,1-1.48.39c-.46.14-1,.24-1.43.35a24.92,24.92,0,0,1-2.94.46c-.48.07-1,.12-1.45.17a39.21,39.21,0,0,1-31.13-12.25c-.58-.6-1.14-1.27-1.69-1.92a31.42,31.42,0,0,1-2.31-3c-.37-.55-.76-1.13-1.11-1.71a37,37,0,0,1-5.41-20.66c0-.3.05-.65.07-1v-.25c0-.47.07-.93.14-1.37a27.68,27.68,0,0,1,.42-2.79c0-.28.09-.56.13-.83s.17-.7.24-1.07.13-.55.2-.83.21-.76.3-1.13a.45.45,0,0,0,.05-.19s0-.07,0-.09a.29.29,0,0,1,0-.14c.21-.71.42-1.43.7-2.12.07-.24.16-.49.23-.72a1.45,1.45,0,0,0-1.67-1.92.32.32,0,0,0-.18,0,.62.62,0,0,0-.28.14.74.74,0,0,0-.21.13l-.09.1a2.59,2.59,0,0,0-.21.3s0,0,0,.07a2.24,2.24,0,0,0-.1.21c-.13.23-.34.64-.62,1.2,0,0,0,0,0,0a86.56,86.56,0,0,0-3.72,8.94c-.21.63-.44,1.27-.65,1.94s-.53,1.67-.79,2.55c-.09.34-.18.69-.3,1.06s-.2.83-.32,1.27-.21.86-.32,1.29-.19.79-.26,1.21c-.3,1.24-.53,2.54-.74,3.86,0,.23-.07.43-.09.67-.12.78-.23,1.59-.32,2.42,0,.42-.07.86-.12,1.27,0,.1,0,.17,0,.23,0,.44-.07.91-.09,1.34s0,.65,0,1c0,.64,0,1.29,0,1.94v.9c0,.48,0,1.27.07,1.75l.06,1.07c0,.23,0,.46.07.69a29.61,29.61,0,0,0,.37,3c.1.42.17.86.26,1.28s.16.83.25,1.22c0,.05,0,.05,0,.07.11.42.2.85.34,1.27v.07c.12.35.21.72.33,1.06.16.53.32,1.07.53,1.6s.3.81.46,1.22a1,1,0,0,1,.11.26c.17.39.35.78.54,1.18a11,11,0,0,0,.53,1.1,16.3,16.3,0,0,0,.81,1.48c.23.42.46.81.71,1.21a31.24,31.24,0,0,0,3.61,4.71c.21.23.41.46.65.69l.92.93c.25.25.51.48.79.71s.6.56.92.81c.14.14.58.49,1,.83a.41.41,0,0,1,.09.1.26.26,0,0,1,.09.23.32.32,0,0,1-.3.32l-.11,0c-.63-.05-1.34-.14-1.74-.19a76.87,76.87,0,0,1-12.06-2.54,74.78,74.78,0,0,1-12.43-4.87l0,0c-.53-.25-1.08-.53-1.59-.81-1.94-1-3.81-2.1-5.64-3.25-.51-.31-1-.63-1.46-1a3.11,3.11,0,0,0-.44-.3c-.5-.35-1-.7-1.52-1.07l-.51-.37a4.72,4.72,0,0,1-1.64-5.36A212.18,212.18,0,0,1,88.37,71.36c.23,1.53.51,3,.76,4.55a2.33,2.33,0,0,0,.21.74.76.76,0,0,0,1.23.3c.69-.55,1.36-1.13,2.05-1.68a.78.78,0,0,0,.23-.49c.12-1.15.23-2.31.35-3.46.21-1.78.39-3.54.58-5.32v-.07a.81.81,0,0,1,.34-.58l1.9-1.5c1.66-1.32,3.33-2.66,5-4,.81-.63,1.21-.47,1.44.53.71,3.05,1.45,6.08,2.17,9.1.67,2.8,1.32,5.57,2,8.37.39,1.64.81,3.3,1.2,4.94a1.74,1.74,0,0,0,.35.61l.69.06c.74-.5,1.34-1.13,2-1.68a1.27,1.27,0,0,0,.39-.67c.09-.44.14-.88.19-1.34.69-8.6,1.41-17.24,2.12-25.84.07-1.09.16-2.15.26-3.23a1.84,1.84,0,0,1,.78-1.48c1.51-1.16,2.94-2.38,4.39-3.56s2.62-2.13,3.93-3.17a4.18,4.18,0,0,0,1.39-2,13.46,13.46,0,0,0,.39-1.61,1.33,1.33,0,0,1,0-.19c0-.32.07-.67.09-1a2.23,2.23,0,0,0-1.5-1.69l-1.69-.14a6.76,6.76,0,0,0-3.74,1.5l-1.85,1.67c-.81.74-1.64,1.48-2.45,2.19-1.16,1-2.31,2.08-3.47,3.15a1.37,1.37,0,0,1-1.13.37l-3.54-.3q-13.3-1.08-26.62-2.22a1.71,1.71,0,0,0-1.43.48c-.49.44-1,.83-1.48,1.25a.8.8,0,0,0-.28.3c0,.16,0,.32,0,.46a.71.71,0,0,0,.53.67C80,47,83.84,48.65,87.68,50.24c3.3,1.41,6.63,2.8,9.93,4.21a.66.66,0,0,1,.24,1.2c-1.46,1.34-2.92,2.63-4.37,4l-1.07,1s0,0,0,0c-.39.32-.76.67-1.11,1a1.43,1.43,0,0,1-1,.41.72.72,0,0,1-.39,0c-2.52-.24-5.06-.42-7.58-.65a1.94,1.94,0,0,0-1.57.48,15.32,15.32,0,0,1-1.64,1.41.9.9,0,0,0,.3,1.53c1.11.34,2.19.74,3.3,1.08.53.19,1.09.35,1.6.56l-.84.62A222.61,222.61,0,0,0,65.33,83l-2.45,2.42c-1.59,1.64-3.19,3.28-4.74,5l-1.66,2q-4.6,5-8.85,10.37l-1.46,1.71c-1.15,1.46-2.29,2.94-3.37,4.44l-3,4.11c-.37.53-.72,1-1.09,1.55L37,117.23c-1.48,2.2-2.89,4.42-4.27,6.66l-1,1.53c-.48.83-1.31,2.19-1.82,3l-2.87,5.16a1.14,1.14,0,0,1-1.92.09c-.39-.58-.81-1.16-1.2-1.78a76.25,76.25,0,0,1-12.89-36c-.12-1.2-.19-2.41-.26-3.63a1.23,1.23,0,0,1,1.83-1.11,18.45,18.45,0,0,0,5,1.83c12.18,2.56,26-6.68,33.26-12.55,0,0,.07,0,.09-.07,1.62-1.48,3.28-2.94,4.94-4.35,0,0,.07,0,.07,0a1.47,1.47,0,0,0-1-2.59,1.72,1.72,0,0,0-.63.16,93.18,93.18,0,0,1-12.18,7l-.83.37a9.53,9.53,0,0,1-1,.39l-.28.12c-.16,0-.32.11-.48.16a.9.9,0,0,1-.19,0c-.18.06-.39.11-.6.16-13.31,3.26-26.51-10-21.51-23.83A77.62,77.62,0,0,1,76,12.29a.5.5,0,0,0,.16,0c1.71-.25,3.42-.48,5.16-.62a3.45,3.45,0,0,1,.55-.07c.86-.07,1.71-.14,2.57-.19h.18l1,0c.23,0,.48,0,.71,0H87l1.41,0h.09c1.83,0,3.63.07,5.41.21.44,0,.86,0,1.27.09a2.94,2.94,0,0,1,.51.05c.74.07,1.46.14,2.2.23l.34,0s.07,0,.09,0c.63.1,1.25.17,1.88.26,0,0,0,0,0,0,.65.09,1.3.21,1.92.33s1.09.18,1.62.3a2.93,2.93,0,0,1,.53.11l.42.07,1.24.28c.63.16,1.25.3,1.85.46.21.05.42.12.65.16l1.22.35c.61.16,1.23.35,1.83.53.16.05.32.09.49.16l1.5.49c.37.14.71.25,1.06.37s.6.23.86.3c.5.21,1,.41,1.52.6a8.69,8.69,0,0,1,1,.41c.85.35,1.71.72,2.54,1.09a.64.64,0,0,0,.21.09l1.59.77a.1.1,0,0,1,.07,0c.56.26,1.11.53,1.64.83h0l.06,0h0c.44.25.88.48,1.32.71a2.9,2.9,0,0,1,.34.19c.58.3,1.11.62,1.67.95h0c.37.23.74.43,1.08.64.58.35,1.16.72,1.71,1.07.17.11.33.2.49.32l.12.07c.62.41,1.27.83,1.87,1.27q.38.24.69.48s0,0,.05,0a2.2,2.2,0,0,1,.18.14c.39.27.79.55,1.16.85h0l0,0,.74.58a1,1,0,0,1,.19.12,3.31,3.31,0,0,1,.3.25l.09.07.19.14c.2.18.44.35.64.53.44.35.86.69,1.27,1l.3.23,1,.86s0,0,0,0h0l.21.19a2.28,2.28,0,0,1,.39.37,4.64,4.64,0,0,1,.42.37,4,4,0,0,1,.39.34l.3.28.93.9c.3.28.62.58.92.88l.55.58c.35.34.7.71,1,1.06s.79.81,1.16,1.22L147,38c1.27,1.45,2.47,2.93,3.63,4.48.37.48.71,1,1.08,1.52.28.37.56.77.81,1.16.16.21.3.44.44.65.28.39.53.8.79,1.2l.11.18c.33.49.63,1,.93,1.48s.64,1.06.94,1.62.72,1.22,1,1.85.67,1.25,1,1.87.53,1,.76,1.55.39.83.58,1.22c.09.19.16.37.25.56.21.46.39.92.6,1.38.76,1.83,1.48,3.68,2.13,5.6.11.37.23.76.37,1.15l.23.79.41,1.43c.54,1.85,1,3.7,1.37,5.59.11.51.21,1,.3,1.53.18,1,.34,1.94.48,2.93.07.4.12.79.16,1.16.12.85.21,1.69.28,2.54.07.62.12,1.25.19,1.87v.07c0,.46,0,.9.07,1.39l0,.48c0,.21,0,.42.05.6,0,.7,0,1.83,0,2.5V89C166,89.64,166,90.29,166,91Z"/><path class="cls-2" d="M202.1,53.39A25.64,25.64,0,0,1,228,27.64a24.2,24.2,0,0,1,17.76,7.56c.5.5.21,1-.14,1.43l-6.35,6.78a1,1,0,0,1-1.43.14A14.73,14.73,0,0,0,228,39.84a13.11,13.11,0,0,0-13.34,13.55A13.05,13.05,0,0,0,228,66.88a14.73,14.73,0,0,0,9.84-3.71,1,1,0,0,1,1.5.14l6.28,6.78c.35.35.64.85.14,1.35A24,24,0,0,1,228,79.08,25.58,25.58,0,0,1,202.1,53.39Z"/><path class="cls-2" d="M248.41,60.67c0-10.27,6.63-18.33,16.26-18.33,4.92,0,8.28,1.78,10.49,4.85l.14-2.86a1.13,1.13,0,0,1,1.14-1.14h8.85a1.13,1.13,0,0,1,1.14,1.14V77a1.19,1.19,0,0,1-1.21,1.14h-8.78A1.13,1.13,0,0,1,275.3,77l-.14-2.93A12.44,12.44,0,0,1,264.67,79C255,79,248.41,71,248.41,60.67Zm19,7.49c4.21,0,7.14-3,7.14-7.56s-2.93-7.42-7.14-7.42a7.1,7.1,0,0,0-7.27,7.49C260.11,65.24,263.24,68.16,267.38,68.16Z"/><path class="cls-2" d="M293.86,77V44.33A1.12,1.12,0,0,1,295,43.19h9.41c.57,0,1,.29,1.07,1.22l.36,4.71c1.14-3.93,3.28-6.78,7.28-6.78a4.77,4.77,0,0,1,3.21.92,1.75,1.75,0,0,1,.71,1.58v7.91c0,.86-.5,1.15-1.5.93a8.44,8.44,0,0,0-2.64-.36c-4.21,0-7.06,2.21-7.06,7.64V77a1.13,1.13,0,0,1-1.14,1.14H295A1.12,1.12,0,0,1,293.86,77Z"/><path class="cls-2" d="M322.18,31.78a6.49,6.49,0,1,1,6.49,6.49A6.32,6.32,0,0,1,322.18,31.78Zm.43,12.55a1.13,1.13,0,0,1,1.14-1.14h9.84a1.13,1.13,0,0,1,1.15,1.14V77a1.13,1.13,0,0,1-1.15,1.14h-9.84A1.13,1.13,0,0,1,322.61,77Z"/><path class="cls-2" d="M353.5,74.08,353.36,77a1.13,1.13,0,0,1-1.14,1.14h-8.78A1.19,1.19,0,0,1,342.23,77V28.28a1.13,1.13,0,0,1,1.14-1.14h9.77a1.13,1.13,0,0,1,1.15,1.14V46.12c2.28-2.5,5.42-3.78,9.7-3.78,9.63,0,16.26,8.06,16.26,18.33S373.62,79,364,79A12.43,12.43,0,0,1,353.5,74.08Zm7.78-5.92c4.13,0,7.27-2.92,7.27-7.49a7.1,7.1,0,0,0-7.27-7.49c-4.21,0-7.14,2.93-7.14,7.42S357.07,68.16,361.28,68.16Z"/><path class="cls-2" d="M397.16,74.08,397,77a1.13,1.13,0,0,1-1.14,1.14h-8.77A1.19,1.19,0,0,1,385.89,77V28.28A1.13,1.13,0,0,1,387,27.14h9.77A1.13,1.13,0,0,1,398,28.28V46.12c2.28-2.5,5.42-3.78,9.7-3.78,9.63,0,16.27,8.06,16.27,18.33S417.28,79,407.65,79A12.44,12.44,0,0,1,397.16,74.08Zm7.78-5.92c4.14,0,7.28-2.92,7.28-7.49a7.1,7.1,0,0,0-7.28-7.49c-4.21,0-7.13,2.93-7.13,7.42S400.73,68.16,404.94,68.16Z"/><path class="cls-2" d="M427.78,60.53c0-10.27,7.2-18.19,18.12-18.19,10.7,0,16.9,7.77,16.9,16.76,0,3.78-.92,6.14-4.42,6.14h-18.9c1.28,3.21,4.35,4.42,8.7,4.42a13.74,13.74,0,0,0,7.2-1.64c.57-.29.93-.14,1.29.43L460,73c.28.43.36,1-.36,1.64-2.92,3-7.42,4.36-12.41,4.36C435.69,79,427.78,71.3,427.78,60.53ZM452.17,57c-.71-3.71-3.28-4.92-6.2-4.92-3.07,0-5.78,1.36-6.71,4.92Z"/><path class="cls-2" d="M466.66,60.67c0-10.27,6.64-18.33,16.27-18.33,4.92,0,8.27,1.78,10.48,4.85l.15-2.86a1.12,1.12,0,0,1,1.14-1.14h8.84a1.13,1.13,0,0,1,1.14,1.14V77a1.19,1.19,0,0,1-1.21,1.14H494.7A1.12,1.12,0,0,1,493.56,77l-.15-2.93A12.41,12.41,0,0,1,482.93,79C473.3,79,466.66,71,466.66,60.67Zm19,7.49c4.21,0,7.13-3,7.13-7.56s-2.92-7.42-7.13-7.42a7.1,7.1,0,0,0-7.28,7.49C478.36,65.24,481.5,68.16,485.64,68.16Z"/><path class="cls-2" d="M512.11,77V44.33a1.13,1.13,0,0,1,1.14-1.14h9.42c.57,0,1.07.29,1.07,1.22l.36,3.92a10.73,10.73,0,0,1,10-6c7.21,0,12.63,5.42,12.63,14.48V77a1.19,1.19,0,0,1-1.21,1.14h-9.64A1.13,1.13,0,0,1,534.72,77V59.82c0-4.36-1.78-6.5-5.28-6.5s-5.34,2.14-5.34,6.5V77A1.13,1.13,0,0,1,523,78.15h-9.7A1.13,1.13,0,0,1,512.11,77Z"/><path class="cls-2" d="M213.73,150.1V106H203.1a.91.91,0,0,1-1-1v-2.78a.9.9,0,0,1,1-1h26.68a.9.9,0,0,1,1,1V105a.91.91,0,0,1-1,1h-10.7V150.1a.9.9,0,0,1-1,1h-3.35A.9.9,0,0,1,213.73,150.1Z"/><path class="cls-2" d="M237.35,150.1V117.15c0-.65.29-1,.93-1h3c.72,0,1,.28,1,1.07l.14,4c1.36-3.28,3.71-5.92,8.07-5.92a6.19,6.19,0,0,1,3.21.71,1.24,1.24,0,0,1,.57,1.22v2.49c0,.79-.5.93-1.29.72a8.21,8.21,0,0,0-2.49-.36c-6.28,0-8,5.57-8,9.49V150.1c0,.65-.29,1-.93,1h-3.28C237.64,151.1,237.35,150.75,237.35,150.1Z"/><path class="cls-2" d="M259,133.63c0-10.42,7-18.34,17.19-18.34a14.67,14.67,0,0,1,13.41,7.7l.14-5.84c0-.65.29-1,.93-1h3.07c.64,0,.93.35.93,1V150.1c0,.65-.29,1-.93,1h-3.07c-.64,0-.93-.35-.93-1l-.14-5.7c-2.57,4.7-7.13,7.56-13.41,7.56C266,152,259,144.11,259,133.63Zm17.9,13.55c7.49,0,12.7-5.35,12.7-13.41s-5.21-13.7-12.7-13.7S264,125.56,264,133.63,269.45,147.18,276.94,147.18Z"/><path class="cls-2" d="M305.49,150.1V117.15c0-.65.28-1,.93-1h3c.72,0,1,.28,1,1.07l.21,4.49c2-3.57,5.78-6.42,11.56-6.42,7.63,0,12.77,5,12.77,14.27V150.1c0,.65-.29,1-.93,1h-3.35c-.64,0-.86-.35-.86-1v-20c0-6.21-3.28-10-9.06-10s-10.13,3.78-10.13,10v20c0,.65-.28,1-.92,1h-3.28C305.77,151.1,305.49,150.75,305.49,150.1Z"/><path class="cls-2" d="M344.66,146.68a1.31,1.31,0,0,1-.07-1.78l1.07-1.43c.42-.57,1.07-.57,1.64,0a11.09,11.09,0,0,0,8.56,3.92c4.06,0,7-1.78,7-5.42,0-3.28-2.21-4.85-5.49-6.2l-4.14-1.72c-4.28-1.78-7.85-4.42-7.85-9.41,0-5.78,4.85-9.35,10.7-9.35a12.86,12.86,0,0,1,10.2,4.85,1.12,1.12,0,0,1-.07,1.57L365.06,123c-.64.72-1.07.65-1.71,0a9.59,9.59,0,0,0-7.06-3.35c-3.22,0-6,1.57-6,4.85s2.43,4.57,6,6.07l3.42,1.42c4.57,1.86,8.2,4.5,8.2,9.92,0,6.56-5.63,10.06-11.91,10.06A14.14,14.14,0,0,1,344.66,146.68Z"/><path class="cls-2" d="M379,150.1V120.43h-4.21a.9.9,0,0,1-1-1v-2.28a.9.9,0,0,1,1-1H379v-7.92c0-6,3.06-9.28,9.13-9.28a8.59,8.59,0,0,1,3.42.58c.5.21.64.35.64.92v2.93c0,.5-.42.57-.85.5a15.17,15.17,0,0,0-2.43-.22c-4,0-4.78,2.5-4.78,5.71v6.78h7.06a.9.9,0,0,1,1,1v2.28a.9.9,0,0,1-1,1h-7.06V150.1c0,.65-.28,1-.93,1H379.9C379.26,151.1,379,150.75,379,150.1Z"/><path class="cls-2" d="M396.88,133.48c0-10.27,7.14-18.19,17.55-18.19s16.34,8,16.34,16.55c0,2.57-.5,3.64-2.57,3.64H401.88c.71,6.92,5.42,12.13,13.91,12.13a15.65,15.65,0,0,0,10.06-3.36.72.72,0,0,1,1.07.07l1.21,1.65c.5.64.21,1-.29,1.49a17.85,17.85,0,0,1-12.48,4.5C404,152,396.88,143.68,396.88,133.48Zm29.32-2c-.28-6.91-4.78-11.62-11.84-11.62s-11.77,4.49-12.48,11.62Z"/><path class="cls-2" d="M439.84,150.1V117.15c0-.65.28-1,.93-1h3c.71,0,1,.28,1,1.07l.14,4c1.36-3.28,3.71-5.92,8.06-5.92a6.17,6.17,0,0,1,3.21.71,1.22,1.22,0,0,1,.57,1.22v2.49c0,.79-.5.93-1.28.72a8.27,8.27,0,0,0-2.5-.36c-6.27,0-8,5.57-8,9.49V150.1c0,.65-.28,1-.92,1h-3.28C440.12,151.1,439.84,150.75,439.84,150.1Z"/><path class="cls-2" d="M463.31,146.68a1.31,1.31,0,0,1-.07-1.78l1.07-1.43a1,1,0,0,1,1.64,0,11.11,11.11,0,0,0,8.56,3.92c4.07,0,7-1.78,7-5.42,0-3.28-2.21-4.85-5.49-6.2l-4.14-1.72c-4.28-1.78-7.85-4.42-7.85-9.41,0-5.78,4.86-9.35,10.7-9.35a12.89,12.89,0,0,1,10.21,4.85,1.13,1.13,0,0,1-.08,1.57L483.71,123c-.64.72-1.07.65-1.71,0a9.58,9.58,0,0,0-7.06-3.35c-3.21,0-6,1.57-6,4.85s2.42,4.57,6,6.07l3.42,1.42c4.57,1.86,8.21,4.5,8.21,9.92,0,6.56-5.64,10.06-11.92,10.06A14.14,14.14,0,0,1,463.31,146.68Z"/></g></g></svg>