<svg width="24" height="24" viewBox="0 0 24 24" fill="none" xmlns="http://www.w3.org/2000/svg">
<g id="game-icons:cash" clip-path="url(#clip0_209_2497)">
<path id="Vector" d="M9.872 2.08074L9.54388 1.87496C8.90169 1.48121 8.10013 1.25246 7.41106 1.46715C6.67044 1.69777 6.07981 2.26824 5.77044 3.12512L5.32981 2.89824C4.57044 2.50731 4.17294 2.50121 3.84341 2.64934C3.58044 2.76699 3.30622 3.05012 2.99544 3.46356L6.85794 6.44996C7.46263 6.64684 8.34856 6.64215 9.2345 6.41246C10.1251 6.18278 11.0111 5.73277 11.6579 5.12809L13.1158 1.5234C11.8314 0.508556 10.6595 1.09637 9.872 2.08074ZM12.3611 5.66715C11.5642 6.4734 10.3783 7.01715 9.45481 7.2609C9.13138 7.34527 8.80794 7.40621 8.49388 7.43902C8.32044 7.72496 8.17513 8.01559 8.06262 8.30621C8.28762 9.44996 8.7095 10.3875 9.34231 11.1562L8.66731 11.7187C8.27825 11.25 7.93138 10.7437 7.66888 10.1812C7.62669 11.2687 7.87044 12.3937 8.26887 13.5656L7.43919 13.8468C6.70794 11.7093 6.4595 9.52028 7.48606 7.45778C7.13919 7.42965 6.81106 7.36403 6.50637 7.25621L6.49231 7.25152C6.29075 7.44371 6.09856 7.64528 5.91575 7.85621C4.43591 9.57184 3.62075 11.8546 4.04731 13.6312C4.27559 14.5828 4.68481 15.4828 5.27356 16.2515C6.13606 16.2328 6.95169 16.2515 7.69231 16.5328C8.04388 16.4953 8.40481 16.4718 8.77981 16.4718C10.1158 16.4718 11.3251 16.7203 12.2392 17.1515C12.5954 17.3203 12.9189 17.5218 13.1767 17.7515C13.1767 17.5031 13.2142 17.2359 13.2892 17.039C12.872 16.6453 12.6095 16.1671 12.6095 15.6234C12.6095 14.8687 13.1111 14.2453 13.8376 13.7953C13.8376 13.5796 13.8798 13.3734 13.9548 13.1765C13.4814 12.7687 13.1767 12.2625 13.1767 11.6718C13.1767 11.3015 13.2986 10.964 13.5048 10.6593C13.2986 10.3593 13.1767 10.0218 13.1767 9.65152C13.1767 9.46871 13.2048 9.29996 13.2564 9.1359C12.8017 8.73277 12.5157 8.2359 12.5157 7.66403C12.5157 7.09684 12.797 6.60465 13.247 6.20621C12.9704 5.99059 12.6751 5.80777 12.3611 5.66715ZM17.5829 5.77496C16.3642 5.77496 15.2626 6.03277 14.5079 6.41246C13.7486 6.79215 13.3923 7.2609 13.3923 7.66403C13.3923 8.07184 13.7486 8.54059 14.5079 8.92028C15.2626 9.29996 16.3642 9.55777 17.5829 9.55777C18.1126 9.55777 18.6142 9.50621 19.0783 9.42184V8.62496C19.7298 8.52653 20.2689 8.3484 20.6158 8.11871V8.94371C21.2017 8.77496 21.7642 8.15153 21.7783 7.66403C21.7783 7.2609 21.422 6.79215 20.6626 6.41246C19.9032 6.03277 18.8064 5.77496 17.5829 5.77496ZM22.1064 8.9484C21.9517 9.11246 21.7689 9.26715 21.5626 9.40777L21.572 10.7671C22.1626 10.4156 22.4392 10.0078 22.4392 9.65152C22.4392 9.42653 22.3314 9.18277 22.1064 8.9484ZM14.0533 9.67027C14.0673 10.0734 14.4236 10.5281 15.1689 10.9031C15.9283 11.2875 17.0251 11.5406 18.2486 11.5406C19.0126 11.5406 19.7298 11.4375 20.3439 11.2687L20.3767 9.99371C19.5704 10.275 18.6142 10.4297 17.5829 10.4297C16.247 10.4297 15.0329 10.1625 14.1142 9.70309C14.0908 9.69371 14.072 9.67965 14.0533 9.67027ZM14.147 11.3015C14.0814 11.4281 14.0533 11.5547 14.0533 11.6718C14.0533 12.0796 14.4095 12.5484 15.1689 12.9281C15.9283 13.3078 17.0251 13.5609 18.2486 13.5609C18.8673 13.5609 19.4533 13.5 19.9829 13.3828V12.2578C19.4392 12.3609 18.8579 12.4125 18.2486 12.4125C16.9079 12.4125 15.6939 12.15 14.7751 11.6859C14.5454 11.5734 14.3345 11.4422 14.147 11.3015ZM22.3454 11.3015C22.0595 11.5031 21.8111 11.6531 21.5204 11.7796V12.825C22.1439 12.464 22.4392 12.0422 22.4392 11.6718C22.4392 11.5547 22.4111 11.4281 22.3454 11.3015ZM22.697 13.0265C22.6033 13.1203 22.5001 13.2093 22.3876 13.2984V14.8172C22.8704 14.489 23.1048 14.1281 23.1048 13.8C23.1048 13.5515 22.9689 13.2843 22.697 13.0265ZM14.7236 13.6828C14.7189 13.725 14.7142 13.7625 14.7142 13.8C14.7142 14.2078 15.0704 14.6718 15.8298 15.0515C16.5892 15.4359 17.6908 15.689 18.9095 15.689C19.6079 15.689 20.2736 15.6046 20.8501 15.464V14.0625C20.0861 14.3062 19.2001 14.4375 18.2486 14.4375C16.9079 14.4375 15.6939 14.1703 14.7751 13.7109C14.7564 13.7015 14.7423 13.6921 14.7236 13.6828ZM14.0861 14.6859C13.6783 14.9906 13.4861 15.3234 13.4861 15.6234C13.4861 16.0312 13.8423 16.4953 14.6017 16.8797C15.3611 17.2593 16.4579 17.5125 17.6814 17.5125C18.1267 17.5125 18.5579 17.4797 18.9611 17.4187V16.5656H18.9095C17.5689 16.5656 16.3548 16.2984 15.4361 15.8343C14.8501 15.5437 14.3626 15.1546 14.0861 14.6859ZM21.7033 16.1203C21.3329 16.2515 20.9298 16.3593 20.4986 16.4296V16.9968C20.5876 16.9593 20.6767 16.9218 20.7611 16.8797C21.2204 16.6453 21.5298 16.3828 21.7033 16.1203ZM22.1345 16.9734C21.9564 17.1515 21.7501 17.3109 21.5204 17.4562V18.7968C22.1439 18.4406 22.4392 18.0187 22.4392 17.6484C22.4392 17.4328 22.3408 17.1984 22.1345 16.9734ZM5.78919 17.1046C5.31106 17.1093 4.79544 17.1703 4.26106 17.2968C3.19184 17.5453 2.27262 18 1.67262 18.5015C1.07262 18.9984 0.838249 19.5046 0.908562 19.8656C0.978874 20.2265 1.34919 20.5593 2.07106 20.7515C2.79059 20.939 3.797 20.9484 4.86575 20.7C5.297 20.5968 5.70012 20.4656 6.07044 20.3109V19.3406C6.75481 19.0359 7.26575 18.6703 7.49544 18.314V19.4578C8.06262 18.9703 8.28294 18.4828 8.21731 18.1265C8.15169 17.7656 7.77669 17.4328 7.05481 17.2453C6.69387 17.1515 6.26262 17.1 5.78919 17.1046ZM8.81731 17.3484C8.94388 17.5312 9.03294 17.7375 9.07981 17.9671C9.13138 18.2484 9.10794 18.5203 9.02356 18.7875C9.48763 18.9093 9.9095 19.0734 10.2751 19.2796C10.4814 19.3921 10.6736 19.5281 10.8423 19.6687C11.2642 19.5703 11.6204 19.4296 11.8736 19.2609V20.2265C12.6283 19.8703 12.9751 19.4343 12.9751 19.0875C12.9751 18.7359 12.6283 18.3 11.8689 17.9437C11.1142 17.5921 10.0267 17.3531 8.81731 17.3484ZM14.0579 17.5828C14.0533 17.6015 14.0533 17.625 14.0533 17.6484C14.0533 18.0562 14.4095 18.5203 15.1689 18.9046C15.9283 19.2843 17.0251 19.5375 18.2486 19.5375C18.8673 19.5375 19.4533 19.4718 19.9829 19.3593V18.0984C19.2892 18.2859 18.5064 18.389 17.6814 18.389C16.3408 18.389 15.1267 18.1218 14.2079 17.6625C14.1564 17.6343 14.1048 17.6062 14.0579 17.5828ZM14.1892 19.3312C14.0954 19.4859 14.0533 19.6359 14.0533 19.7812C14.0533 20.189 14.4095 20.6531 15.1689 21.0375C15.9283 21.4171 17.0251 21.6703 18.2486 21.6703C18.8673 21.6703 19.4533 21.6046 19.9829 21.4921V20.2547C19.4392 20.3578 18.8579 20.414 18.2486 20.414C16.9079 20.414 15.6939 20.1468 14.7751 19.6828C14.5642 19.5796 14.3673 19.4625 14.1892 19.3312ZM22.3033 19.3312C22.0314 19.514 21.7923 19.6593 21.5204 19.7765V20.9296C22.1439 20.5734 22.4392 20.1515 22.4392 19.7812C22.4392 19.6359 22.397 19.4859 22.3033 19.3312ZM8.58763 19.5843C8.42356 19.7906 8.23138 19.9875 8.01575 20.1656C7.2845 20.7796 6.25325 21.2765 5.06262 21.5531C4.63794 21.6515 4.21606 21.7125 3.81106 21.7453C3.96106 21.9937 4.22497 22.2375 4.61122 22.4531C5.25012 22.814 6.18762 23.0578 7.22825 23.0578C7.70169 23.0578 8.15169 23.0062 8.56419 22.9171V21.9422C9.21106 21.8437 9.75481 21.6656 10.1017 21.4359V22.2984C10.5704 21.9703 10.7954 21.6 10.7954 21.2484C10.7954 20.8406 10.4908 20.4046 9.84856 20.0437C9.50169 19.8515 9.07044 19.6921 8.58763 19.5843Z" fill="#4DBC34"/>
</g>
<defs>
<clipPath id="clip0_209_2497">
<rect width="24" height="24" fill="white"/>
</clipPath>
</defs>
</svg>
