<svg width="32" height="24" viewBox="0 0 32 24" fill="none" xmlns="http://www.w3.org/2000/svg">
<g id="logos:mastercard" clip-path="url(#clip0_209_2615)">
<path id="Vector" d="M6.06839 23.8807V22.2922C6.06839 21.6832 5.69766 21.2861 5.0622 21.2861C4.74453 21.2861 4.40033 21.392 4.16202 21.7362C3.97677 21.445 3.71205 21.2861 3.3149 21.2861C3.05006 21.2861 2.78546 21.3655 2.57356 21.6567V21.3391H2.01758V23.8807H2.57356V22.4775C2.57356 22.0275 2.81187 21.8156 3.1826 21.8156C3.5531 21.8156 3.73858 22.0539 3.73858 22.4775V23.8807H4.29456V22.4775C4.29456 22.0275 4.55917 21.8156 4.90337 21.8156C5.2741 21.8156 5.45935 22.0539 5.45935 22.4775V23.8807H6.06839ZM14.3021 21.3391H13.402V20.5713H12.846V21.3391H12.343V21.842H12.8459V23.007C12.8459 23.5895 13.0842 23.9336 13.7197 23.9336C13.958 23.9336 14.2226 23.8543 14.4081 23.7484L14.2491 23.2717C14.0903 23.3776 13.9051 23.4042 13.7726 23.4042C13.5079 23.4042 13.402 23.2453 13.402 22.9805V21.842H14.3021V21.3391ZM19.0148 21.286C18.6971 21.286 18.4853 21.445 18.3529 21.6567V21.3391H17.7969V23.8807H18.3529V22.451C18.3529 22.0275 18.5381 21.7892 18.8823 21.7892C18.9882 21.7892 19.1207 21.8157 19.2265 21.8421L19.3854 21.3127C19.2795 21.2861 19.1207 21.2861 19.0148 21.2861M11.8929 21.551C11.6281 21.3656 11.2575 21.2863 10.8603 21.2863C10.225 21.2863 9.80142 21.6039 9.80142 22.107C9.80142 22.5306 10.1191 22.7688 10.6751 22.8483L10.9398 22.8748C11.231 22.9277 11.3899 23.0071 11.3899 23.1396C11.3899 23.3248 11.1781 23.4572 10.8074 23.4572C10.4368 23.4572 10.1455 23.3248 9.96013 23.1925L9.69541 23.6161C9.98666 23.8278 10.3838 23.9337 10.7808 23.9337C11.5222 23.9337 11.9459 23.5897 11.9459 23.113C11.9459 22.6629 11.6017 22.4246 11.0721 22.3453L10.8074 22.3187C10.5691 22.2922 10.3838 22.2394 10.3838 22.0805C10.3838 21.8952 10.5691 21.7893 10.8603 21.7893C11.1781 21.7893 11.4958 21.9216 11.6546 22.0011L11.8929 21.551ZM26.6662 21.2863C26.3484 21.2863 26.1366 21.4451 26.0042 21.6569V21.3392H25.4482V23.8808H26.0042V22.4512C26.0042 22.0276 26.1896 21.7893 26.5336 21.7893C26.6397 21.7893 26.7721 21.8158 26.878 21.8422L27.0368 21.3128C26.9309 21.2863 26.7721 21.2863 26.6662 21.2863ZM19.5707 22.61C19.5707 23.3778 20.1002 23.9337 20.921 23.9337C21.2916 23.9337 21.5564 23.8544 21.8211 23.6426L21.5564 23.1925C21.3446 23.3513 21.1328 23.4307 20.8945 23.4307C20.4444 23.4307 20.1267 23.113 20.1267 22.61C20.1267 22.1335 20.4444 21.8157 20.8945 21.7893C21.1328 21.7893 21.3446 21.8686 21.5564 22.0276L21.8211 21.5775C21.5564 21.3656 21.2916 21.2863 20.921 21.2863C20.1002 21.2863 19.5707 21.8422 19.5707 22.61ZM24.707 22.61V21.3392H24.151V21.6569C23.9656 21.4187 23.7009 21.2863 23.3567 21.2863C22.6419 21.2863 22.0859 21.8422 22.0859 22.61C22.0859 23.3778 22.6419 23.9337 23.3567 23.9337C23.7273 23.9337 23.9922 23.8014 24.151 23.5631V23.8808H24.707V22.61ZM22.6683 22.61C22.6683 22.1599 22.9596 21.7893 23.4361 21.7893C23.8862 21.7893 24.204 22.1335 24.204 22.61C24.204 23.0601 23.8862 23.4307 23.4361 23.4307C22.9596 23.4042 22.6683 23.0601 22.6683 22.61ZM16.0231 21.2863C15.2817 21.2863 14.7522 21.8157 14.7522 22.61C14.7522 23.4043 15.2816 23.9337 16.0495 23.9337C16.4201 23.9337 16.7908 23.8278 17.0821 23.5897L16.8173 23.1925C16.6055 23.3513 16.3408 23.4572 16.076 23.4572C15.7318 23.4572 15.3876 23.2984 15.3082 22.8482H17.188V22.6365C17.2145 21.8157 16.738 21.2863 16.0231 21.2863ZM16.023 21.7628C16.367 21.7628 16.6055 21.9747 16.6583 22.3718H15.3346C15.3875 22.0276 15.6258 21.7628 16.023 21.7628ZM29.8166 22.61V20.3331H29.2606V21.6569C29.0752 21.4187 28.8105 21.2863 28.4663 21.2863C27.7515 21.2863 27.1955 21.8422 27.1955 22.61C27.1955 23.3778 27.7515 23.9337 28.4663 23.9337C28.837 23.9337 29.1018 23.8014 29.2606 23.5631V23.8808H29.8166V22.61ZM27.778 22.61C27.778 22.1599 28.0692 21.7893 28.5458 21.7893C28.9959 21.7893 29.3135 22.1335 29.3135 22.61C29.3135 23.0601 28.9959 23.4307 28.5458 23.4307C28.0692 23.4042 27.778 23.0601 27.778 22.61ZM9.19225 22.61V21.3392H8.63627V21.6569C8.4509 21.4187 8.18618 21.2863 7.84198 21.2863C7.12717 21.2863 6.57119 21.8422 6.57119 22.61C6.57119 23.3778 7.12717 23.9337 7.84198 23.9337C8.21271 23.9337 8.47744 23.8014 8.63627 23.5631V23.8808H9.19225V22.61ZM7.12717 22.61C7.12717 22.1599 7.41842 21.7893 7.89493 21.7893C8.34502 21.7893 8.6628 22.1335 8.6628 22.61C8.6628 23.0601 8.34502 23.4307 7.89493 23.4307C7.41842 23.4042 7.12717 23.0601 7.12717 22.61Z" fill="black"/>
<path id="Vector_2" d="M11.707 2.03857H20.0467V17.0236H11.707V2.03857Z" fill="#FF5F00"/>
<path id="Vector_3" d="M12.2367 9.53114C12.2367 6.48651 13.6663 3.78597 15.8637 2.03855C14.2488 0.767759 12.2103 0 9.98633 0C4.71755 0 0.455078 4.26247 0.455078 9.53114C0.455078 14.7997 4.71755 19.0623 9.98621 19.0623C12.2101 19.0623 14.2487 18.2945 15.8637 17.0236C13.6663 15.3027 12.2367 12.5758 12.2367 9.53114Z" fill="#EB001B"/>
<path id="Vector_4" d="M31.2992 9.53114C31.2992 14.7997 27.0368 19.0623 21.7681 19.0623C19.5442 19.0623 17.5056 18.2945 15.8906 17.0236C18.1145 15.2763 19.5178 12.5758 19.5178 9.53114C19.5178 6.48651 18.088 3.78597 15.8906 2.03855C17.5055 0.767759 19.5442 0 21.7681 0C27.0368 0 31.2992 4.28901 31.2992 9.53114Z" fill="#F79E1B"/>
</g>
<defs>
<clipPath id="clip0_209_2615">
<rect width="30.88" height="24" fill="white" transform="translate(0.453125)"/>
</clipPath>
</defs>
</svg>
