<svg width="21" height="24" viewBox="0 0 21 24" fill="none" xmlns="http://www.w3.org/2000/svg">
<g id="logos:paypal" clip-path="url(#clip0_209_2620)">
<path id="Vector" d="M17.5779 1.86808C16.4705 0.605932 14.4688 0.0648193 11.9081 0.0648193H4.47602C4.22265 0.0648287 3.9776 0.15522 3.78492 0.319742C3.59224 0.484263 3.46457 0.712123 3.42487 0.962356L0.330296 20.5889C0.268786 20.9759 0.568468 21.3264 0.960733 21.3264H5.54902L6.70134 14.0174L6.66558 14.2463C6.74767 13.7296 7.18953 13.3486 7.71276 13.3486H9.8931C14.1764 13.3486 17.5303 11.6088 18.51 6.57605C18.5391 6.4272 18.5643 6.28233 18.586 6.14079C18.4624 6.07531 18.4624 6.07531 18.586 6.14079C18.8778 4.28063 18.584 3.01444 17.5779 1.86808Z" fill="#27346A"/>
<path id="Vector_2" d="M8.457 5.4707C8.58244 5.41097 8.71963 5.38002 8.85856 5.3801H14.6852C15.3751 5.3801 16.0187 5.425 16.6067 5.51965C16.7713 5.54589 16.935 5.57722 17.0976 5.61359C17.3281 5.66445 17.556 5.7267 17.7803 5.8001C18.0694 5.89666 18.3386 6.00911 18.5861 6.14079C18.8778 4.27992 18.584 3.01444 17.5779 1.86808C16.4699 0.605932 14.4688 0.0648193 11.9081 0.0648193H4.47538C3.95207 0.0648193 3.50688 0.445799 3.42487 0.962356L0.330297 20.5882C0.268787 20.9758 0.568469 21.3258 0.960098 21.3258H5.54903L7.93973 6.16527C7.96323 6.01625 8.0226 5.87518 8.1127 5.75419C8.20281 5.6332 8.32096 5.53591 8.457 5.4707Z" fill="#27346A"/>
<path id="Vector_3" d="M18.5095 6.57613C17.5298 11.6082 14.176 13.3487 9.89259 13.3487H7.71161C7.18838 13.3487 6.74644 13.7297 6.66514 14.2464L5.23158 23.3342C5.17802 23.6729 5.43995 23.9798 5.78263 23.9798H9.65044C9.872 23.9797 10.0863 23.9006 10.2547 23.7567C10.4232 23.6128 10.5347 23.4135 10.5694 23.1946L10.607 22.9975L11.336 18.3775L11.383 18.1221C11.4176 17.9033 11.5291 17.704 11.6976 17.5601C11.866 17.4161 12.0803 17.337 12.3018 17.3369H12.8807C16.6274 17.3369 19.5612 15.8148 20.4186 11.4124C20.7764 9.57271 20.5913 8.03671 19.6446 6.95782C19.3575 6.63104 19.0009 6.36116 18.5855 6.14087C18.563 6.28312 18.5386 6.42728 18.5095 6.57613Z" fill="#2790C3"/>
<path id="Vector_4" d="M17.5605 5.73198C17.4077 5.68737 17.2535 5.64788 17.0981 5.61357C16.9354 5.5778 16.7717 5.54668 16.6073 5.52027C16.0185 5.42499 15.3755 5.38001 14.6849 5.38001H8.859C8.71996 5.37969 8.58266 5.41091 8.45743 5.47132C8.32124 5.53633 8.20296 5.63356 8.11281 5.75458C8.02266 5.87561 7.96338 6.01679 7.94008 6.16589L6.70178 14.0174L6.66602 14.2463C6.74747 13.7296 7.18933 13.3486 7.71264 13.3486H9.89362C14.1769 13.3486 17.5307 11.6088 18.5104 6.57603C18.5396 6.42719 18.5641 6.28295 18.5865 6.14078C18.3384 6.00981 18.0699 5.89664 17.7807 5.80072C17.7077 5.77653 17.6344 5.75361 17.5606 5.73198" fill="#1F264F"/>
</g>
<defs>
<clipPath id="clip0_209_2620">
<rect width="20.35" height="24" fill="white" transform="translate(0.316406)"/>
</clipPath>
</defs>
</svg>
